<svg width="90" height="33" viewBox="0 0 90 33" fill="none" xmlns="http://www.w3.org/2000/svg">
<path d="M1.76392 7.38322H5.78187C6.44138 7.38322 6.95377 7.42393 7.31904 7.50536C7.69445 7.58679 8.02928 7.74456 8.32353 7.97867C9.05406 8.52832 9.41933 9.26628 9.41933 10.1925C9.41933 11.241 8.94245 11.984 7.9887 12.4217C8.56704 12.5845 9.0287 12.9154 9.37367 13.4141C9.71865 13.9129 9.89114 14.4981 9.89114 15.1699C9.89114 16.2591 9.49036 17.109 8.6888 17.7197C8.4047 17.9335 8.05972 18.0861 7.65387 18.1778C7.24801 18.2694 6.65953 18.3152 5.8884 18.3152H1.76392V7.38322ZM3.28587 8.75734V11.9331H5.85797C6.52762 11.9331 7.01972 11.811 7.33426 11.5667C7.65894 11.3122 7.82128 10.9305 7.82128 10.4216C7.82128 9.8312 7.65894 9.40878 7.33426 9.15432C7.01972 8.88967 6.48197 8.75734 5.72099 8.75734H3.28587ZM3.28587 13.3072V16.941H5.75143C6.52255 16.941 7.1364 16.8189 7.59299 16.5746C8.05972 16.3201 8.29309 15.8417 8.29309 15.1394C8.29309 13.918 7.49153 13.3072 5.8884 13.3072H3.28587Z" fill="#363431"/>
<path d="M11.7145 12.9561C11.7145 11.7855 11.9276 10.7626 12.3537 9.88718C12.79 9.01181 13.414 8.34002 14.2257 7.8718C15.0374 7.40357 15.976 7.16946 17.0413 7.16946C17.8429 7.16946 18.5633 7.30179 19.2025 7.56643C19.8519 7.8209 20.4048 8.19243 20.8614 8.681C21.318 9.16958 21.6681 9.74977 21.9116 10.4216C22.1551 11.0934 22.2768 11.872 22.2768 12.7576C22.2768 13.8264 22.0688 14.8035 21.6528 15.6891C21.247 16.5644 20.6382 17.2566 19.8265 17.7655C19.0249 18.2643 18.0661 18.5137 16.95 18.5137C15.8644 18.5137 14.9309 18.2897 14.1496 17.8419C13.3684 17.394 12.7647 16.7476 12.3385 15.9028C11.9225 15.0478 11.7145 14.0655 11.7145 12.9561ZM13.3126 12.9255C13.3126 14.2081 13.6423 15.231 14.3018 15.9944C14.9613 16.7578 15.8644 17.1395 17.0109 17.1395C18.1676 17.1395 19.0706 16.7527 19.72 15.9792C20.3795 15.1954 20.7092 14.1215 20.7092 12.7576C20.7092 12.3301 20.6737 11.9331 20.6027 11.5667C20.5317 11.1901 20.4201 10.8389 20.2679 10.5132C19.9635 9.87192 19.5272 9.38334 18.959 9.04744C18.4009 8.71154 17.7516 8.54359 17.0109 8.54359C15.8441 8.54359 14.936 8.93547 14.2866 9.71923C13.6372 10.503 13.3126 11.5718 13.3126 12.9255Z" fill="#363431"/>
<path d="M24.9416 7.38322H28.6247C29.5379 7.38322 30.2278 7.43411 30.6945 7.5359C31.1714 7.63769 31.6077 7.85144 32.0034 8.17716C32.5818 8.62502 33.0384 9.24592 33.3732 10.0399C33.708 10.8338 33.8754 11.7397 33.8754 12.7576C33.8754 13.6024 33.7486 14.4014 33.4949 15.1547C33.2413 15.9079 32.8862 16.5339 32.4296 17.0326C31.9831 17.5212 31.4809 17.8571 30.9228 18.0403C30.3749 18.2236 29.6444 18.3152 28.7312 18.3152H24.9416V7.38322ZM26.4635 8.75734V16.941H28.6399C29.6748 16.941 30.4155 16.7833 30.862 16.4677C31.8259 15.7654 32.3078 14.5185 32.3078 12.727C32.3078 11.9026 32.1911 11.2002 31.9578 10.6201C31.7244 10.0297 31.3845 9.58182 30.9381 9.27646C30.4206 8.93038 29.6393 8.75734 28.5943 8.75734H26.4635Z" fill="#363431"/>
<path d="M35.0134 7.38322H36.8093L40.0511 12.5591L43.1863 7.38322H44.9822L40.8121 13.9943V18.3152H39.2749V13.9943L35.0134 7.38322Z" fill="#363431"/>
<path d="M50.8535 7.38322H59.5895V8.75734H55.9825V18.3152H54.4301V8.75734H50.8535V7.38322Z" fill="#363431"/>
<path d="M61.8293 7.38322H63.3512V18.3152H61.8293V7.38322Z" fill="#363431"/>
<path d="M66.7447 7.38322H68.9059L71.6758 16.5135L74.4306 7.38322H76.5765V18.3152H75.0393V9.55129L72.3455 18.3152H70.9301L68.2667 9.52075V18.3152H66.7447V7.38322Z" fill="#363431"/>
<path d="M79.9982 7.38322H87.821V8.75734H81.5201V11.9636H87.3492V13.3378H81.5201V16.941H87.8971V18.3152H79.9982V7.38322Z" fill="#363431"/>
<path d="M1.73926 28.5295H4.67282V29.0448H2.30999V30.2472H4.49589V30.7625H2.30999V32.1137H4.70136V32.629H1.73926V28.5295Z" fill="#363431"/>
<path d="M12.3195 28.5295H12.9188L14.3799 32.629H13.7578L13.3525 31.4094H11.783L11.355 32.629H10.7443L12.3195 28.5295ZM12.5935 29.1536L11.9714 30.9457H13.1927L12.5935 29.1536Z" fill="#363431"/>
<path d="M20.3771 31.2606H20.9764C20.9764 31.4629 20.9973 31.6175 21.0392 31.7243C21.0658 31.8198 21.1438 31.9114 21.2732 31.9992C21.4748 32.1251 21.7336 32.1881 22.0494 32.1881C22.2396 32.1881 22.4127 32.1614 22.5687 32.108C22.7247 32.0545 22.8408 31.9782 22.9169 31.8789C22.9968 31.7797 23.0367 31.6671 23.0367 31.5411C23.0367 31.335 22.8712 31.1709 22.5402 31.0487L21.3017 30.585C20.7919 30.4017 20.5369 30.0849 20.5369 29.6345C20.5369 29.436 20.5769 29.2643 20.6568 29.1192C20.7367 28.9704 20.8527 28.8425 21.0049 28.7356C21.1305 28.6478 21.2865 28.5753 21.4729 28.518C21.6442 28.4722 21.8192 28.4493 21.998 28.4493C22.603 28.4493 23.0367 28.6345 23.2993 29.0047C23.3602 29.0925 23.4058 29.1975 23.4362 29.3196C23.4705 29.4418 23.4876 29.5925 23.4876 29.7719H22.8883C22.8883 29.562 22.8579 29.4055 22.797 29.3024C22.7362 29.2108 22.6296 29.1326 22.4774 29.0677C22.3252 28.999 22.1616 28.9646 21.9866 28.9646C21.7279 28.9646 21.5186 29.0257 21.3588 29.1479C21.2028 29.2662 21.1248 29.4112 21.1248 29.583C21.1248 29.7051 21.1552 29.8006 21.2161 29.8693C21.277 29.9342 21.3892 29.9971 21.5528 30.0582L22.8598 30.5449C23.3773 30.7357 23.636 31.0468 23.636 31.4781C23.636 31.669 23.5865 31.8503 23.4876 32.0221C23.3925 32.1938 23.2593 32.337 23.0881 32.4515C22.8484 32.6194 22.4945 32.7034 22.0265 32.7034C21.4939 32.7034 21.0848 32.5908 20.7995 32.3656C20.5179 32.1404 20.3771 31.8179 20.3771 31.398V31.2606Z" fill="#363431"/>
<path d="M29.5819 28.5295H30.2554L31.471 30.4705L32.6467 28.5295H33.3202L31.7564 31.0087V32.629H31.18V31.0087L29.5819 28.5295Z" fill="#363431"/>
<path d="M46.5314 31.2606H47.1306C47.1306 31.4629 47.1516 31.6175 47.1934 31.7243C47.22 31.8198 47.298 31.9114 47.4274 31.9992C47.6291 32.1251 47.8878 32.1881 48.2036 32.1881C48.3938 32.1881 48.567 32.1614 48.723 32.108C48.879 32.0545 48.995 31.9782 49.0711 31.8789C49.151 31.7797 49.191 31.6671 49.191 31.5411C49.191 31.335 49.0255 31.1709 48.6944 31.0487L47.4559 30.585C46.9461 30.4017 46.6912 30.0849 46.6912 29.6345C46.6912 29.436 46.7311 29.2643 46.811 29.1192C46.8909 28.9704 47.007 28.8425 47.1592 28.7356C47.2847 28.6478 47.4407 28.5753 47.6272 28.518C47.7984 28.4722 47.9734 28.4493 48.1522 28.4493C48.7572 28.4493 49.191 28.6345 49.4535 29.0047C49.5144 29.0925 49.56 29.1975 49.5905 29.3196C49.6247 29.4418 49.6418 29.5925 49.6418 29.7719H49.0426C49.0426 29.562 49.0121 29.4055 48.9513 29.3024C48.8904 29.2108 48.7838 29.1326 48.6316 29.0677C48.4795 28.999 48.3158 28.9646 48.1408 28.9646C47.8821 28.9646 47.6728 29.0257 47.513 29.1479C47.357 29.2662 47.279 29.4112 47.279 29.583C47.279 29.7051 47.3095 29.8006 47.3703 29.8693C47.4312 29.9342 47.5435 29.9971 47.7071 30.0582L49.014 30.5449C49.5315 30.7357 49.7902 31.0468 49.7902 31.4781C49.7902 31.669 49.7408 31.8503 49.6418 32.0221C49.5467 32.1938 49.4136 32.337 49.2423 32.4515C49.0026 32.6194 48.6488 32.7034 48.1808 32.7034C47.6481 32.7034 47.2391 32.5908 46.9537 32.3656C46.6721 32.1404 46.5314 31.8179 46.5314 31.398V31.2606Z" fill="#363431"/>
<path d="M56.227 28.5295H56.7977V30.2185H58.7268V28.5295H59.2975V32.629H58.7268V30.7338H56.7977V32.629H56.227V28.5295Z" fill="#363431"/>
<path d="M67.0525 28.5295H67.6517L69.1128 32.629H68.4907L68.0855 31.4094H66.516L66.0879 32.629H65.4772L67.0525 28.5295ZM67.3264 29.1536L66.7043 30.9457H67.9257L67.3264 29.1536Z" fill="#363431"/>
<path d="M75.3612 28.5295H76.9307C77.1971 28.5295 77.412 28.5448 77.5756 28.5753C77.724 28.6097 77.8515 28.6688 77.958 28.7528C78.2586 28.9704 78.4089 29.2853 78.4089 29.6975C78.4089 29.9647 78.3461 30.1994 78.2206 30.4017C78.0988 30.6002 77.9238 30.7415 77.6955 30.8254C77.5471 30.8827 77.3188 30.9113 77.0106 30.9113H75.9319V32.629H75.3612V28.5295ZM75.9319 30.396H76.8223C77.1419 30.396 77.3854 30.354 77.5528 30.2701C77.724 30.1823 77.8096 29.9991 77.8096 29.7204C77.8096 29.4647 77.7316 29.2891 77.5756 29.1937C77.4196 29.0944 77.2009 29.0448 76.9193 29.0448H75.9319V30.396Z" fill="#363431"/>
<path d="M84.8057 28.5295H87.7393V29.0448H85.3764V30.2472H87.5623V30.7625H85.3764V32.1137H87.7678V32.629H84.8057V28.5295Z" fill="#363431"/>
<path d="M0 23.8021H89.4146" stroke="#363431"/>
<path d="M0 0.899994H89.4146" stroke="#363431"/>
</svg>
