<svg width="61" height="55" viewBox="0 0 61 55" fill="none" xmlns="http://www.w3.org/2000/svg">
<path d="M51.6486 19.9114C46.167 17.5881 38.8049 16.0842 30.9422 15.6735C29.7313 15.6009 28.5184 15.5652 27.3053 15.5666C33.1182 8.4953 39.3546 3.74734 43.462 3.59357C44.2677 3.56357 44.9529 3.73046 45.5025 4.08112C47.2776 5.23436 47.7671 8.50655 46.8654 13.0576C46.7675 13.6821 47.1685 14.2971 47.7671 14.4153C47.9158 14.4459 48.0691 14.4469 48.2183 14.4183C48.3674 14.3897 48.5094 14.332 48.636 14.2485C48.7627 14.165 48.8715 14.0574 48.9563 13.9319C49.0411 13.8064 49.1001 13.6654 49.1299 13.517C50.2575 7.81461 49.4236 3.89548 46.7675 2.16843C45.8169 1.544 44.6592 1.24772 43.3735 1.29835C38.2365 1.49337 30.9817 7.05141 24.3236 15.6079C21.6089 15.6777 18.9012 15.9157 16.2161 16.3204C14.5972 9.07286 15.2354 3.87672 17.707 2.62598C18.0477 2.44033 18.4223 2.35408 18.8534 2.31282C20.6078 2.17781 23.0191 3.30104 25.6582 5.48751C26.1477 5.88692 26.8724 5.83817 27.2752 5.33937C27.3728 5.22453 27.4465 5.09153 27.4921 4.9481C27.5376 4.80467 27.5541 4.65365 27.5407 4.5038C27.5272 4.35396 27.484 4.20827 27.4135 4.0752C27.3431 3.94212 27.2468 3.82431 27.1303 3.72858C23.9622 1.1202 21.052 -0.15867 18.667 0.0157221C17.9658 0.0704318 17.2812 0.256186 16.6491 0.563276C13.6579 2.08592 12.4626 6.38384 13.208 12.6638C13.3831 13.9615 13.609 15.3191 13.944 16.7067C5.70665 18.3475 0.464162 21.6403 0.238273 25.7695C0.0801516 28.7004 2.40492 31.4832 6.96222 33.8271C7.09661 33.897 7.24359 33.9396 7.39463 33.9524C7.54567 33.9652 7.69775 33.948 7.84206 33.9017C7.98636 33.8555 8.12001 33.7812 8.23524 33.6831C8.35048 33.5849 8.445 33.465 8.51332 33.3302C8.58356 33.1962 8.62629 33.0495 8.63901 32.8988C8.65173 32.7482 8.63418 32.5965 8.58739 32.4526C8.5406 32.3088 8.4655 32.1757 8.36649 32.061C8.26748 31.9464 8.14653 31.8526 8.01072 31.7851C4.37391 29.9193 2.41433 27.8191 2.53104 25.897C2.65904 23.1911 6.98104 20.4158 14.4824 18.9438C15.2055 21.5685 16.0855 24.1477 17.1178 26.6677C14.5596 31.3857 12.7054 36.0361 11.7567 40.1671C10.343 46.3309 11.0997 50.7263 13.912 52.5415C14.8137 53.1265 15.8622 53.4209 17.0387 53.4209C19.3823 53.4209 22.2247 52.2677 25.4418 49.9837C25.5648 49.8963 25.6692 49.7856 25.7493 49.658C25.8293 49.5303 25.8833 49.3882 25.9082 49.2398C25.9332 49.0913 25.9285 48.9394 25.8945 48.7928C25.8604 48.6462 25.7978 48.5076 25.71 48.3851C25.6223 48.2626 25.5111 48.1585 25.383 48.0788C25.2549 47.9991 25.1122 47.9453 24.9632 47.9204C24.8142 47.8956 24.6617 47.9003 24.5145 47.9342C24.3673 47.9681 24.2282 48.0305 24.1053 48.1179C20.2332 50.8801 16.9691 51.7989 15.1657 50.625C13.2626 49.3855 12.841 45.7721 14.0193 40.6847C14.8118 37.2175 16.2933 33.3583 18.3037 29.383C18.8025 30.4781 19.3334 31.5713 19.883 32.6664C23.4615 39.659 27.8437 45.7327 32.2071 49.7887C35.6877 53.0121 38.9235 54.6923 41.5796 54.6923C42.4625 54.6923 43.2869 54.5048 44.0324 54.1354C46.903 52.6709 48.1511 48.6073 47.5412 42.6986C46.984 37.1612 44.8851 30.4199 41.6304 23.6918C41.4975 23.4202 41.2627 23.2116 40.9768 23.111C40.6908 23.0103 40.3766 23.0256 40.1019 23.1536C39.9645 23.2183 39.8412 23.3094 39.7391 23.4217C39.6371 23.534 39.5583 23.6652 39.5072 23.8079C39.4561 23.9505 39.4338 24.1018 39.4416 24.2531C39.4493 24.4044 39.4869 24.5526 39.5523 24.6894C46.2969 38.6932 46.7788 50.16 42.9933 52.0839C38.9932 54.1241 29.3741 46.194 21.933 31.6313C21.1146 30.0534 20.3592 28.4438 19.6684 26.8065C20.5212 25.2932 21.4228 23.7593 22.4243 22.2366C23.3985 20.7487 24.4212 19.2928 25.4907 17.8712H26.4827C27.8362 17.8712 29.3063 17.9012 30.8349 17.9893C47.2174 18.8501 58.3763 24.395 58.1504 28.8298C58.0525 30.7425 55.8256 32.6777 52.0608 34.1328C51.7878 34.251 51.5714 34.4699 51.4568 34.7436C51.3422 35.0173 51.3385 35.3245 51.4463 35.6009C51.5541 35.8773 51.7652 36.1014 52.0352 36.2263C52.3052 36.3511 52.6132 36.3669 52.8947 36.2705C57.6779 34.4253 60.3058 31.8845 60.4545 28.9479C60.6295 25.6251 57.5236 22.4223 51.6693 19.9414V19.9208L51.6486 19.9114ZM20.4816 20.9671C19.8182 21.9893 19.1805 23.0279 18.5691 24.0818C17.8736 22.2669 17.2686 20.4189 16.7564 18.5444C18.6763 18.2509 20.6092 18.0488 22.5485 17.9387C21.8331 18.9279 21.147 19.9378 20.491 20.9671V20.939L20.4816 20.9671ZM30.3341 23.9074C25.7354 23.9074 25.7354 30.7837 30.3341 30.7837C34.9423 30.7837 34.9423 23.9074 30.3341 23.9074Z" fill="#C7DF9E"/>
</svg>
