<svg width="49" height="68" viewBox="0 0 49 68" fill="none" xmlns="http://www.w3.org/2000/svg">
<path fill-rule="evenodd" clip-rule="evenodd" d="M24.6539 8.12499C15.2845 8.12499 8.79374 14.8525 8.79374 23.0529C8.79374 26.97 10.4749 29.5216 12.6953 32.2246L13.5439 33.2317C14.4281 34.2826 15.4074 35.445 16.2123 36.6074C17.3384 38.2435 18.3415 40.1742 18.6746 42.5387C18.754 43.3069 18.5338 44.076 18.0603 44.6846C17.5868 45.2932 16.8969 45.694 16.1353 45.8027C15.3738 45.9114 14.5999 45.7196 13.9762 45.2676C13.3525 44.8156 12.9275 44.1386 12.7905 43.3787C12.6319 42.2561 12.1442 41.2012 11.3234 40.007C10.6525 39.0692 9.93526 38.1658 9.17439 37.3001C8.84133 36.902 8.48844 36.484 8.11176 36.0262C5.62568 33.0048 2.84619 29.0877 2.84619 23.0529C2.84619 11.3494 12.2156 2.15384 24.6539 2.15384C37.0922 2.15384 46.4616 11.3494 46.4616 23.0529C46.4616 29.0877 43.6821 33.0048 41.196 36.0262C40.8193 36.484 40.4664 36.902 40.1334 37.2961C39.3126 38.2714 38.6148 39.0994 37.9883 40.007C37.1636 41.2012 36.6798 42.2561 36.5212 43.3787C36.466 43.7668 36.3352 44.1403 36.1363 44.4777C35.9374 44.8151 35.6742 45.1098 35.3618 45.3451C35.0493 45.5804 34.6938 45.7516 34.3155 45.8489C33.9372 45.9463 33.5435 45.9679 33.1569 45.9124C32.7703 45.857 32.3983 45.7257 32.0623 45.526C31.7262 45.3262 31.4326 45.062 31.1983 44.7484C30.9639 44.4347 30.7934 44.0778 30.6964 43.698C30.5995 43.3182 30.578 42.9229 30.6332 42.5348C30.9662 40.1742 31.9694 38.2435 33.0954 36.6074C33.9003 35.445 34.8797 34.2826 35.7639 33.2317C36.0613 32.8814 36.3468 32.543 36.6085 32.2246C38.8329 29.5216 40.514 26.97 40.514 23.0529C40.514 14.8525 34.0233 8.12499 24.6539 8.12499ZM16.7238 62.8606C16.7238 62.0687 17.0371 61.3094 17.5948 60.7494C18.1525 60.1895 18.9089 59.875 19.6976 59.875H29.6102C30.3989 59.875 31.1553 60.1895 31.713 60.7494C32.2706 61.3094 32.584 62.0687 32.584 62.8606C32.584 63.6524 32.2706 64.4118 31.713 64.9717C31.1553 65.5316 30.3989 65.8461 29.6102 65.8461H19.6976C18.9089 65.8461 18.1525 65.5316 17.5948 64.9717C17.0371 64.4118 16.7238 63.6524 16.7238 62.8606ZM15.7326 49.9231C14.9439 49.9231 14.1875 50.2376 13.6298 50.7975C13.0721 51.3574 12.7588 52.1168 12.7588 52.9086C12.7588 53.7005 13.0721 54.4599 13.6298 55.0198C14.1875 55.5797 14.9439 55.8942 15.7326 55.8942H33.5752C34.3639 55.8942 35.1203 55.5797 35.678 55.0198C36.2357 54.4599 36.549 53.7005 36.549 52.9086C36.549 52.1168 36.2357 51.3574 35.678 50.7975C35.1203 50.2376 34.3639 49.9231 33.5752 49.9231H15.7326Z" fill="#C7DF9E" stroke="white" stroke-width="4"/>
</svg>
