<svg width="57" height="57" viewBox="0 0 57 57" fill="none" xmlns="http://www.w3.org/2000/svg">
<path d="M55.9647 20.396C55.9904 20.5152 56.0126 20.639 55.9872 20.7582C55.9312 21.0207 55.7022 20.9189 55.4987 20.8338C54.0109 20.2121 52.5181 19.6036 51.0457 18.9494C50.5807 18.7462 50.3992 18.8356 50.1687 19.2836C44.4716 30.3911 36.6536 39.668 26.1894 46.6185C19.42 51.1337 11.7476 54.1318 3.702 55.4057C3.03307 55.5134 2.36109 55.6089 1.68809 55.6912V55.6912C1.49587 55.7123 1.4205 55.3349 1.59937 55.2615V55.2615C14.7535 49.9068 24.5141 40.7346 31.6601 28.6458C34.3419 24.109 36.3732 19.2775 37.9456 14.2541C38.1628 13.5623 38.1597 13.5582 37.4806 13.2728C36.3069 12.7811 35.1302 12.2955 33.9606 11.7957C33.9588 11.7949 33.957 11.7942 33.9552 11.7934C33.7196 11.6892 33.6882 11.2884 33.9096 11.1567V11.1567C39.5077 7.82267 45.1079 4.49267 50.7102 1.16674C51.1731 0.892452 51.2659 0.933087 51.3944 1.4654C52.9192 7.77594 54.4426 14.0861 55.9647 20.396V20.396Z" stroke="#C7DF9E" stroke-width="2"/>
</svg>
