<svg width="69" height="62" viewBox="0 0 69 62" fill="none" xmlns="http://www.w3.org/2000/svg">
<path d="M33.0481 30.3765C33.8473 31.217 35.149 31.217 35.9596 30.3765L48.3934 17.4061C52.0014 13.6353 51.7959 7.38856 47.754 3.91311C44.2374 0.880605 38.9967 1.42577 35.7769 4.78765L34.4982 6.1165L33.2308 4.79901C30.011 1.42577 24.7703 0.880605 21.2537 3.91311C17.2233 7.38856 17.0063 13.6353 20.6143 17.4061L33.0481 30.3765ZM66.1593 39.1901C64.812 37.9748 62.7111 38.0543 61.2954 39.1901L50.7455 47.5835C49.4553 48.617 47.8454 49.1735 46.1784 49.1735H32.6713C31.6666 49.1735 30.8445 48.3558 30.8445 47.3563C30.8445 46.3568 31.6666 45.5391 32.6713 45.5391H41.6113C43.4267 45.5391 45.1166 44.3011 45.4134 42.5179C45.7902 40.2464 44.0319 38.2701 41.8054 38.2701H23.5372C20.4545 38.2701 17.4745 39.3264 15.0768 41.2572L9.76755 45.5391H3.44218C2.43743 45.5391 1.61536 46.3568 1.61536 47.3563V58.2597C1.61536 59.2592 2.43743 60.0769 3.44218 60.0769H44.1803C45.8359 60.0769 47.4458 59.5204 48.7474 58.4868L66.0108 44.744C67.7463 43.3697 67.8833 40.7348 66.1593 39.1901Z" stroke="#C7DF9E" stroke-width="2"/>
</svg>
